<?xml version="1.0" encoding="UTF-8"?>
<svg id="Grid" xmlns="http://www.w3.org/2000/svg" viewBox="0 0 1024 1024">
  <defs>
    <style>
      .cls-1 {
        fill: rgba(255, 255, 255, .85);
      }
    </style>
  </defs>
  <path class="cls-1" d="M374.18,721.91c65.87,0,118.53-85.72,118.53-210s-52.49-209.82-118.53-209.82c-62.39,0-112.62,76.4-118.18,189.53,10.08-21.57,29.89-34.73,55.96-34.73,37.89,0,63.09,27.96,63.09,69.45s-25.2,69.64-63.09,69.64c-23.46,0-41.88-10.6-52.66-28.51,13.03,93.58,59.09,154.44,114.88,154.44ZM293.71,518.49c7.82,1.65,15.29-5.85,17.38-16.27,1.91-10.24-2.95-20.29-11.12-21.93-7.65-1.46-15.82,6.03-17.55,16.45-1.91,10.6,3.3,20.47,11.3,21.75ZM649.47,721.91c66.04,0,118.53-85.72,118.53-210s-52.49-209.82-118.53-209.82c-62.39,0-112.62,76.4-118.18,189.53,10.08-21.57,29.89-34.73,55.96-34.73,37.89,0,63.09,27.96,63.09,69.45s-25.2,69.64-63.09,69.64c-23.46,0-41.88-10.6-52.66-28.51,13.03,93.58,59.09,154.44,114.88,154.44ZM569,518.49c7.82,1.65,15.47-5.85,17.38-16.27,1.91-10.24-2.95-20.47-11.12-21.93-7.65-1.46-15.82,6.03-17.55,16.45-1.91,10.6,3.3,20.29,11.3,21.75Z"/>
</svg>